# xmcd
#
# Track frame offsets: 
#        150
#        15671
#        33324
#        50423
#        66846
#        85177
#        99158
#        116308
#        133749
#        149906
#        164804
#
# Disc length: 2440 seconds
#
# Revision: 0
# Processed by: cddbd v1.5.2PL0 Copyright (c) Steve Scherf et al.
# Submitted via: ExactAudioCopyFreeDBPlugin 1.0
#
DISCID=9709860b
DTITLE=Avant - The Letter
DYEAR=2010
DGENRE=R&B
TTITLE0=Graduated
TTITLE1=Hot 16
TTITLE2=Kiss Goodbye
TTITLE3=Had Enough
TTITLE4=Body Police
TTITLE5=Nightlife
TTITLE6=Your Body Is The Business
TTITLE7=Wake Up
TTITLE8=That Dude
TTITLE9=Where Did We Go
TTITLE10=Walking On Water
EXTD=
EXTT0=
EXTT1=
EXTT2=
EXTT3=
EXTT4=
EXTT5=
EXTT6=
EXTT7=
EXTT8=
EXTT9=
EXTT10=
PLAYORDER=
